<svg data-v-423bf9ae="" xmlns="http://www.w3.org/2000/svg" viewBox="0 0 267 91" class="iconLeft"><!----><!----><!----><g data-v-423bf9ae="" id="9046f6fe-fe93-4bdc-86bc-a859e0e14e04" fill="black" transform="matrix(4.680073261260986,0,0,4.680073261260986,107.77392578125,-16.73674774169922)"><path d="M4.61 10.46L4.61 17.18L2.14 17.18L2.14 10.46L0.10 10.46L0.10 8.43L6.65 8.43L6.65 10.46L4.61 10.46ZM7.49 17.18L7.49 17.18ZM7.60 10.47L10.07 10.15L10.07 17.18L7.60 17.18L7.60 10.47ZM8.82 9.44L8.82 9.44Q8.29 9.44 8.01 9.32L8.01 9.32L8.01 9.32Q7.73 9.21 7.61 8.93L7.61 8.93L7.61 8.93Q7.49 8.65 7.49 8.12L7.49 8.12L7.49 8.12Q7.49 7.35 7.77 7.06L7.77 7.06L7.77 7.06Q8.05 6.78 8.82 6.78L8.82 6.78L8.82 6.78Q9.59 6.78 9.87 7.06L9.87 7.06L9.87 7.06Q10.15 7.35 10.15 8.12L10.15 8.12L10.15 8.12Q10.15 8.89 9.87 9.16L9.87 9.16L9.87 9.16Q9.59 9.44 8.82 9.44L8.82 9.44ZM11.73 17.18L11.73 10.18L12.95 10.18L13.58 10.88L13.58 10.88Q14.74 9.98 16.32 9.98L16.32 9.98L16.32 9.98Q17.30 9.98 17.85 10.38L17.85 10.38L17.85 10.38Q18.40 10.78 18.40 11.49L18.40 11.49L18.40 17.18L15.93 17.18L15.93 12.01L14.90 12.01L14.90 12.01Q14.50 12.01 14.35 12.12L14.35 12.12L14.35 12.12Q14.20 12.24 14.20 12.50L14.20 12.50L14.20 17.18L11.73 17.18ZM23.37 15.65L23.37 15.65Q24.44 15.79 25.01 16.00L25.01 16.00L25.01 16.00Q25.58 16.21 25.81 16.56L25.81 16.56L25.81 16.56Q26.04 16.91 26.04 17.53L26.04 17.53L26.04 17.53Q26.04 18.61 25.30 19.10L25.30 19.10L25.30 19.10Q24.56 19.60 22.92 19.60L22.92 19.60L22.92 19.60Q21.20 19.60 19.70 19.14L19.70 19.14L19.99 17.40L19.99 17.40Q21.32 17.77 22.44 17.77L22.44 17.77L22.44 17.77Q23.16 17.77 23.83 17.68L23.83 17.68L23.83 17.04L23.83 17.04Q22.50 16.94 21.92 16.79L21.92 16.79L21.92 16.79Q21.34 16.63 21.34 16.38L21.34 16.38L21.74 15.09L21.74 15.09Q20.61 14.94 20.09 14.33L20.09 14.33L20.09 14.33Q19.57 13.72 19.57 12.57L19.57 12.57L19.57 12.57Q19.57 11.20 20.32 10.58L20.32 10.58L20.32 10.58Q21.07 9.97 22.75 9.97L22.75 9.97L22.75 9.97Q23.62 9.97 24.19 10.11L24.19 10.11L25.37 9.20L26.56 10.33L25.77 11.34L25.77 11.34Q25.97 11.86 25.97 12.57L25.97 12.57L25.97 12.57Q25.97 13.82 25.36 14.43L25.36 14.43L25.36 14.43Q24.75 15.04 23.39 15.13L23.39 15.13L23.37 15.65ZM21.92 11.83L21.92 13.86L23.00 13.86L23.00 13.86Q23.34 13.86 23.47 13.73L23.47 13.73L23.47 13.73Q23.60 13.61 23.60 13.31L23.60 13.31L23.60 11.27L22.51 11.27L22.51 11.27Q22.18 11.27 22.05 11.39L22.05 11.39L22.05 11.39Q21.92 11.51 21.92 11.83L21.92 11.83ZM30.94 15.55L30.94 15.55Q32.13 15.55 33.42 15.19L33.42 15.19L33.73 16.91L33.73 16.91Q32.34 17.37 30.67 17.37L30.67 17.37L30.67 17.37Q28.83 17.37 28.01 16.51L28.01 16.51L28.01 16.51Q27.20 15.65 27.20 13.68L27.20 13.68L27.20 13.68Q27.20 11.72 28.04 10.85L28.04 10.85L28.04 10.85Q28.87 9.98 30.73 9.98L30.73 9.98L30.73 9.98Q31.98 9.98 32.66 10.19L32.66 10.19L32.66 10.19Q33.33 10.40 33.62 10.89L33.62 10.89L33.62 10.89Q33.91 11.38 33.91 12.29L33.91 12.29L33.91 12.29Q33.91 13.19 33.54 13.68L33.54 13.68L33.54 13.68Q33.18 14.17 32.31 14.38L32.31 14.38L32.31 14.38Q31.44 14.59 29.85 14.59L29.85 14.59L29.85 15.47L29.85 15.47Q30.24 15.55 30.94 15.55L30.94 15.55ZM30.86 11.80L30.86 11.80Q30.28 11.80 30.07 11.93L30.07 11.93L30.07 11.93Q29.85 12.05 29.85 12.40L29.85 12.40L29.85 13.30L30.67 13.30L30.67 13.30Q31.25 13.30 31.46 13.17L31.46 13.17L31.46 13.17Q31.68 13.03 31.68 12.67L31.68 12.67L31.68 11.80L30.86 11.80Z"></path></g><!----><g data-v-423bf9ae="" id="943c415c-f38b-4433-9ff5-a30cb0d67111" transform="matrix(1.0117243528366089,0,0,1.0117243528366089,-6.204032897949219,-5.065717697143555)" stroke="none" fill="black"><path d="M53.127 60.701c-.531-4.455-2.75-8.332-6.25-10.915s-7.858-3.562-12.272-2.756c-4.402.803-8.333 3.287-11.07 6.994s-3.951 8.196-3.422 12.64c.53 4.454 2.75 8.331 6.25 10.914 2.765 2.041 6.01 3.02 9.278 3.02 5.256 0 10.575-2.534 14.063-7.258 2.736-3.707 3.952-8.195 3.423-12.639zm-4.228 12.045c-5.329 7.218-15.173 9.025-21.942 4.027-3.276-2.418-5.353-6.05-5.851-10.228-.5-4.19.65-8.425 3.234-11.927 2.585-3.5 6.294-5.847 10.445-6.604.947-.173 1.89-.259 2.822-.259 3.143 0 6.15.971 8.676 2.836 3.275 2.418 5.353 6.05 5.85 10.228.5 4.19-.649 8.425-3.234 11.927z"></path><ellipse transform="rotate(20.662 39.983 55.528)" cx="39.983" cy="55.528" rx="1.964" ry="3.083"></ellipse><ellipse transform="rotate(110.662 32.022 56.8)" cx="32.022" cy="56.8" rx="3.083" ry="1.964"></ellipse><ellipse transform="rotate(-69.338 45.121 61.74)" cx="45.121" cy="61.74" rx="3.083" ry="1.964"></ellipse><ellipse transform="rotate(-69.338 41.946 70.162)" cx="41.946" cy="70.162" rx="3.083" ry="1.964"></ellipse><ellipse transform="rotate(-69.338 33.279 73.306)" cx="33.279" cy="73.306" rx="3.083" ry="1.964"></ellipse><ellipse transform="rotate(-69.338 28.846 65.221)" cx="28.846" cy="65.221" rx="3.083" ry="1.964"></ellipse><ellipse transform="rotate(-69.338 36.454 64.884)" cx="36.454" cy="64.884" rx="3.083" ry="1.964"></ellipse><path d="M32.222 40.678C22.217 39.32 12.487 34.464 8.93 32.534c18.739-1.311 29.005 4.318 30.45 5.18.06.75.168 1.505.294 2.26 3.919.282 7.752 1.602 11.077 4.056 3.588 2.649 11.942 10.1 13.646 20.007.324.056.647.114.97.168 1.469-1.581 3.66-3.27 6.158-4.321 4.016-1.687 8.591-1.598 13.602.218 1.361-1.16 2.543-2.546 3.44-4.244 2.726-5.163 2.522-12.383-.56-19.81-2.923-7.047-7.88-12.95-13.26-15.79-3.611-1.907-7.7-3.076-11.804-3.447-1.726-4.437 1.22-10.344 1.274-10.442L64 6.367v-.002c0-.012.226-.025.231-.038.014-.03.131-.15.139-.181.004-.02.07-.146.072-.146h.028c.001 0 .01.063.01.05.001-.03.004-.015 0-.045-.004-.022.002-.022-.004-.043-.004-.014-.012-.014-.017-.027-.005-.012-.003-.018-.008-.029-.008-.017-.022-.025-.031-.04-.011-.018-.016-.038-.03-.054-.01-.012-.023-.018-.034-.03-.021-.021-.044.117-.068.1-.017-.012-.029.118-.047.118-.013 0-.027-.163-.04-.169-.03-.013-.059-.1-.09-.107-.02-.004-.037-.055-.057-.057-6.057-.649-10.135 3.805-12.54 7.821-2.86-2.91-7.492-4.855-7.698-4.94-.005-.003-.011-.007-.017-.009a.507.507 0 0 0-.049-.015c-.01-.003-.018-.011-.029-.014-.018-.003-.035.002-.053 0-.02-.002-.039-.008-.058-.007-.016 0-.03.004-.047.006a.474.474 0 0 0-.097.023l-.046.016c-.006.003-.012.002-.018.005-.019.009-.034.02-.053.029l-.006.003c-5.381 2.699-8.481 6.19-9.207 10.381-.146.84-.182 1.67-.147 2.484-3.814-1.94-8.007-4.752-10.486-8.524a1.5 1.5 0 0 0-2.506 1.648c3.301 5.024 9.057 8.448 13.663 10.54.709 2.239 1.838 4.183 2.826 5.602-4.85-2.681-16.076-6.843-30.47 1.005a.125.125 0 0 0-.002.001l-.003.002c-.01.005-.015.014-.024.02a.484.484 0 0 0-.072.06c-.017.015-.037.026-.051.044-.009.01-.013.023-.021.034-.006.01-.016.014-.022.024-.01.016-.01.035-.018.052-.01.02-.023.037-.03.058-.004.014.118.029.115.043-.007.032.112.062.112.094V32.21c0 .012-.116.024-.113.037.005.033.05.064.061.095.008.02.052.041.052.06 0 .006-.086.009-.083.014.003.004-.04.007-.038.011.015.025.01.045.03.066.026.03.042.057.075.08.008.005.006.014.015.019.14.085 11.114 6.596 23.086 8.758a23.778 23.778 0 0 1 2.137-.672zm29.64-23.936a29.754 29.754 0 0 0-4.767.113c.246-5.01 3.76-8.106 5.76-9.463-.871 2.082-2.093 5.955-.993 9.35zm.402-10.152c-2.19 1.496-5.976 4.878-6.175 10.368-2.15.307-4.141.856-5.947 1.627 1.152-3.048 4.984-11.522 12.122-11.995zM44.012 9.72c1.365.627 4.843 2.37 6.984 4.655a30.322 30.322 0 0 0-2.128 4.81 17.992 17.992 0 0 0-4.242 2.984c-1.588-4.749-.901-10.578-.614-12.45zm-8.89 9.412c.632-3.638 3.287-6.726 7.844-9.204-.338 2.338-.912 8.22.88 13.039a16.383 16.383 0 0 0-1.45 1.832c-.46-.13-3.62-1.045-7.36-2.832-.089-.929-.08-1.878.086-2.835zm.812 6.541a51.577 51.577 0 0 0 4.988 1.821 18.713 18.713 0 0 0-1.305 4.356c-.86-1.028-2.591-3.321-3.683-6.177zm3.508 7.491c-.12 1.1-.153 2.224-.115 3.36-2.732-1.513-12.52-6.072-29.61-5.043 17.364-8.159 29.398 1.417 29.725 1.683z"></path><path d="M93.985 91.757l-.002-.005c.006-.03.018-.055.016-.093-.43-8.236-3.208-14.01-8.259-17.522-4.453-3.099-9.882-3.787-14.426-3.636 6.033-1.906 13.208-4.803 15.242-8.247.006-.011.006-.023.012-.035.005-.01.014-.017.019-.029.008-.019.006-.04.011-.059a.482.482 0 0 0 .02-.103.476.476 0 0 0-.005-.09.482.482 0 0 0-.02-.096.48.48 0 0 0-.04-.084.476.476 0 0 0-.053-.08.479.479 0 0 0-.073-.065c-.017-.014-.029-.032-.048-.044-.011-.006-.024-.006-.035-.012-.01-.005-.017-.014-.029-.019a28.832 28.832 0 0 0-1.89-.699c-4.564-1.544-8.875-1.562-12.512-.033-2.122.892-4.266 2.245-5.613 3.603a20.083 20.083 0 0 0-2.499 2.987c-.01-.824-.064-1.65-.178-2.48-.047-.346-.122-.681-.187-1.021l-.018-.009c-1.642-9.54-9.771-16.476-13.26-19.051-3.598-2.656-7.812-3.808-12.074-3.808-1.93 0-3.548.21-5.42.72-5.29 1.282-10.12 4.465-13.502 9.048-3.645 4.94-5.265 10.92-4.56 16.843.708 5.946 3.671 11.12 8.344 14.57 3.756 2.771 11.302 7.421 19.65 7.421 3.623 0 6.919-.88 9.862-2.623.994 1.318 2.749 4.264.89 6.758-.015.02-.02.045-.031.067-.017.032-.036.062-.045.096-.01.033-.01.065-.012.099-.002.03-.008.06-.004.09.004.039.018.074.031.111.008.022.008.044.019.065.001.003.005.004.007.007.033.063.078.12.138.165.007.005.016.003.023.008.083.055.177.09.276.09a.5.5 0 0 0 .225-.054l.004-.001c5.552-2.861 6.887-9.673 7.146-14.068 1.057 2.828 3.157 6.643 7.27 9.504 3.743 2.604 8.417 3.909 13.965 3.909 3.424 0 7.181-.498 11.258-1.492.011-.002.019-.01.03-.013a.491.491 0 0 0 .097-.046c.026-.015.052-.029.074-.048.01-.008.022-.012.032-.02.016-.017.023-.038.036-.055a.492.492 0 0 0 .052-.077.478.478 0 0 0 .035-.094.479.479 0 0 0 .018-.087.49.49 0 0 0-.004-.109c-.003-.018.002-.036-.003-.054zm-51.389-3.128c-.09 0-.18-.007-.272-.008.103.001.205.008.307.008h-.035zM23.836 81c-8.96-6.614-10.517-19.765-3.468-29.314 4.353-5.898 10.986-9.064 17.534-9.064 4.054 0 8.075 1.213 11.5 3.742 8.962 6.615 10.518 19.765 3.47 29.315-7.05 9.548-20.074 11.936-29.035 5.321zm31.138 11.684c.69-2.476-.742-4.947-1.671-6.209 1.922-1.277 3.686-2.94 5.283-4.985.57-.732 1.09-1.47 1.568-2.212-.102 3.668-.928 10.104-5.18 13.406zm8.743-23.24c1.141-2.024 3.743-5.767 8.196-7.638 3.926-1.65 8.448-1.488 13.44.44-3.148 4.114-14.51 7.488-20.12 8.946-.722.139-1.34.278-1.842.401.149-.713.258-1.43.326-2.149zm5.262 19.688c-5.474-3.802-7.218-9.532-7.708-11.753.429-.808.798-1.62 1.119-2.439 3.856 1.092 19.199 5.944 30.107 16.65-9.967 2.274-17.88 1.455-23.518-2.458zM62.733 74c.14-.415.267-.831.38-1.248.64-.15 1.593-.38 2.771-.688 4.71-.842 13.118-1.488 19.288 2.808 4.545 3.163 7.125 8.408 7.726 15.708C81.92 79.991 66.748 75.143 62.733 74z"></path></g><!----></svg>