<svg data-v-423bf9ae="" xmlns="http://www.w3.org/2000/svg" viewBox="0 0 158.22669104204755 60" class="font"><!----><!----><!----><g data-v-423bf9ae="" id="b286c607-7466-4564-8990-f09280a6d9f2" fill="white" transform="matrix(4.680073261260986,0,0,4.680073261260986,-0.47532546520233154,-31.73674774169922)"><path d="M4.61 10.46L4.61 17.18L2.14 17.18L2.14 10.46L0.10 10.46L0.10 8.43L6.65 8.43L6.65 10.46L4.61 10.46ZM7.49 17.18L7.49 17.18ZM7.60 10.47L10.07 10.15L10.07 17.18L7.60 17.18L7.60 10.47ZM8.82 9.44L8.82 9.44Q8.29 9.44 8.01 9.32L8.01 9.32L8.01 9.32Q7.73 9.21 7.61 8.93L7.61 8.93L7.61 8.93Q7.49 8.65 7.49 8.12L7.49 8.12L7.49 8.12Q7.49 7.35 7.77 7.06L7.77 7.06L7.77 7.06Q8.05 6.78 8.82 6.78L8.82 6.78L8.82 6.78Q9.59 6.78 9.87 7.06L9.87 7.06L9.87 7.06Q10.15 7.35 10.15 8.12L10.15 8.12L10.15 8.12Q10.15 8.89 9.87 9.16L9.87 9.16L9.87 9.16Q9.59 9.44 8.82 9.44L8.82 9.44ZM11.73 17.18L11.73 10.18L12.95 10.18L13.58 10.88L13.58 10.88Q14.74 9.98 16.32 9.98L16.32 9.98L16.32 9.98Q17.30 9.98 17.85 10.38L17.85 10.38L17.85 10.38Q18.40 10.78 18.40 11.49L18.40 11.49L18.40 17.18L15.93 17.18L15.93 12.01L14.90 12.01L14.90 12.01Q14.50 12.01 14.35 12.12L14.35 12.12L14.35 12.12Q14.20 12.24 14.20 12.50L14.20 12.50L14.20 17.18L11.73 17.18ZM23.37 15.65L23.37 15.65Q24.44 15.79 25.01 16.00L25.01 16.00L25.01 16.00Q25.58 16.21 25.81 16.56L25.81 16.56L25.81 16.56Q26.04 16.91 26.04 17.53L26.04 17.53L26.04 17.53Q26.04 18.61 25.30 19.10L25.30 19.10L25.30 19.10Q24.56 19.60 22.92 19.60L22.92 19.60L22.92 19.60Q21.20 19.60 19.70 19.14L19.70 19.14L19.99 17.40L19.99 17.40Q21.32 17.77 22.44 17.77L22.44 17.77L22.44 17.77Q23.16 17.77 23.83 17.68L23.83 17.68L23.83 17.04L23.83 17.04Q22.50 16.94 21.92 16.79L21.92 16.79L21.92 16.79Q21.34 16.63 21.34 16.38L21.34 16.38L21.74 15.09L21.74 15.09Q20.61 14.94 20.09 14.33L20.09 14.33L20.09 14.33Q19.57 13.72 19.57 12.57L19.57 12.57L19.57 12.57Q19.57 11.20 20.32 10.58L20.32 10.58L20.32 10.58Q21.07 9.97 22.75 9.97L22.75 9.97L22.75 9.97Q23.62 9.97 24.19 10.11L24.19 10.11L25.37 9.20L26.56 10.33L25.77 11.34L25.77 11.34Q25.97 11.86 25.97 12.57L25.97 12.57L25.97 12.57Q25.97 13.82 25.36 14.43L25.36 14.43L25.36 14.43Q24.75 15.04 23.39 15.13L23.39 15.13L23.37 15.65ZM21.92 11.83L21.92 13.86L23.00 13.86L23.00 13.86Q23.34 13.86 23.47 13.73L23.47 13.73L23.47 13.73Q23.60 13.61 23.60 13.31L23.60 13.31L23.60 11.27L22.51 11.27L22.51 11.27Q22.18 11.27 22.05 11.39L22.05 11.39L22.05 11.39Q21.92 11.51 21.92 11.83L21.92 11.83ZM30.94 15.55L30.94 15.55Q32.13 15.55 33.42 15.19L33.42 15.19L33.73 16.91L33.73 16.91Q32.34 17.37 30.67 17.37L30.67 17.37L30.67 17.37Q28.83 17.37 28.01 16.51L28.01 16.51L28.01 16.51Q27.20 15.65 27.20 13.68L27.20 13.68L27.20 13.68Q27.20 11.72 28.04 10.85L28.04 10.85L28.04 10.85Q28.87 9.98 30.73 9.98L30.73 9.98L30.73 9.98Q31.98 9.98 32.66 10.19L32.66 10.19L32.66 10.19Q33.33 10.40 33.62 10.89L33.62 10.89L33.62 10.89Q33.91 11.38 33.91 12.29L33.91 12.29L33.91 12.29Q33.91 13.19 33.54 13.68L33.54 13.68L33.54 13.68Q33.18 14.17 32.31 14.38L32.31 14.38L32.31 14.38Q31.44 14.59 29.85 14.59L29.85 14.59L29.85 15.47L29.85 15.47Q30.24 15.55 30.94 15.55L30.94 15.55ZM30.86 11.80L30.86 11.80Q30.28 11.80 30.07 11.93L30.07 11.93L30.07 11.93Q29.85 12.05 29.85 12.40L29.85 12.40L29.85 13.30L30.67 13.30L30.67 13.30Q31.25 13.30 31.46 13.17L31.46 13.17L31.46 13.17Q31.68 13.03 31.68 12.67L31.68 12.67L31.68 11.80L30.86 11.80Z"></path></g><!----><!----></svg>